<?xml version="1.0" encoding="UTF-8" standalone="no"?>
<!-- Created with Inkscape (http://www.inkscape.org/) -->

<svg
   xmlns:dc="http://purl.org/dc/elements/1.1/"
   xmlns:cc="http://creativecommons.org/ns#"
   xmlns:rdf="http://www.w3.org/1999/02/22-rdf-syntax-ns#"
   xmlns:svg="http://www.w3.org/2000/svg"
   xmlns="http://www.w3.org/2000/svg"
   xmlns:sodipodi="http://sodipodi.sourceforge.net/DTD/sodipodi-0.dtd"
   xmlns:inkscape="http://www.inkscape.org/namespaces/inkscape"
   id="svg2"
   version="1.1"
   inkscape:version="0.91 r13725"
   xml:space="preserve"
   width="540"
   height="675"
   viewBox="0 0 540 675"
   sodipodi:docname="topGoldImport_zh.svg"
   inkscape:export-filename="/Users/nguyendu/Google Drive/swissinfo/2015_03_15_goldTrade/ink/prod/fifthFig/topGoldImport_zh.png"
   inkscape:export-xdpi="250"
   inkscape:export-ydpi="250"><metadata
     id="metadata8"><rdf:RDF><cc:Work
         rdf:about=""><dc:format>image/svg+xml</dc:format><dc:type
           rdf:resource="http://purl.org/dc/dcmitype/StillImage" /><dc:title /></cc:Work></rdf:RDF></metadata><defs
     id="defs6"><marker
       inkscape:stockid="Arrow2Lstart"
       orient="auto"
       refY="0.0"
       refX="0.0"
       id="Arrow2Lstart"
       style="overflow:visible"
       inkscape:isstock="true"><path
         id="path4769"
         style="fill-rule:evenodd;stroke-width:0.625;stroke-linejoin:round;stroke:#000000;stroke-opacity:1;fill:#000000;fill-opacity:1"
         d="M 8.7185878,4.0337352 L -2.2072895,0.016013256 L 8.7185884,-4.0017078 C 6.9730900,-1.6296469 6.9831476,1.6157441 8.7185878,4.0337352 z "
         transform="scale(1.1) translate(1,0)" /></marker><clipPath
       clipPathUnits="userSpaceOnUse"
       id="clipPath26"><path
         d="m 52.45,344.39 180.77,0 0,134.56 -180.77,0 0,-134.56 z"
         id="path28"
         inkscape:connector-curvature="0" /></clipPath><clipPath
       clipPathUnits="userSpaceOnUse"
       id="clipPath44"><path
         d="m 236.83,344.39 180.77,0 0,134.56 -180.77,0 0,-134.56 z"
         id="path46"
         inkscape:connector-curvature="0" /></clipPath><clipPath
       clipPathUnits="userSpaceOnUse"
       id="clipPath62"><path
         d="m 52.45,194.04 180.77,0 0,134.56 -180.77,0 0,-134.56 z"
         id="path64"
         inkscape:connector-curvature="0" /></clipPath><clipPath
       clipPathUnits="userSpaceOnUse"
       id="clipPath80"><path
         d="m 236.83,194.04 180.77,0 0,134.56 -180.77,0 0,-134.56 z"
         id="path82"
         inkscape:connector-curvature="0" /></clipPath><clipPath
       clipPathUnits="userSpaceOnUse"
       id="clipPath98"><path
         d="m 52.45,43.68 180.77,0 0,134.56 -180.77,0 0,-134.56 z"
         id="path100"
         inkscape:connector-curvature="0" /></clipPath><clipPath
       clipPathUnits="userSpaceOnUse"
       id="clipPath116"><path
         d="m 236.83,43.68 180.77,0 0,134.56 -180.77,0 0,-134.56 z"
         id="path118"
         inkscape:connector-curvature="0" /></clipPath></defs><sodipodi:namedview
     pagecolor="#ffffff"
     bordercolor="#666666"
     borderopacity="1"
     objecttolerance="10"
     gridtolerance="10"
     guidetolerance="10"
     inkscape:pageopacity="0"
     inkscape:pageshadow="2"
     inkscape:window-width="1280"
     inkscape:window-height="720"
     id="namedview4"
     showgrid="false"
     inkscape:zoom="1.0120307"
     inkscape:cx="91.19546"
     inkscape:cy="59.823041"
     inkscape:window-x="0"
     inkscape:window-y="0"
     inkscape:window-maximized="1"
     inkscape:current-layer="g10"
     showguides="false"><inkscape:grid
       type="xygrid"
       id="grid3518" /></sodipodi:namedview><g
     id="g10"
     inkscape:groupmode="layer"
     inkscape:label="topGoldImport"
     transform="matrix(1.25,0,0,-1.25,0,675)"><g
       id="g12"
       transform="translate(0,8)" /><g
       id="g14"
       transform="translate(0,8)" /><g
       id="g16"
       transform="translate(0,8)" /><g
       id="g18"
       transform="translate(0,8)" /><g
       id="g20"
       transform="translate(0,8)" /><g
       id="g22"
       transform="translate(0,8)"><g
         id="g24"
         clip-path="url(#clipPath26)"><path
           d="m 52.45,344.39 180.78,0"
           style="fill:none;stroke:#bebebe;stroke-width:0.06;stroke-linecap:round;stroke-linejoin:round;stroke-miterlimit:10;stroke-dasharray:none;stroke-opacity:1"
           id="path30"
           inkscape:connector-curvature="0" /><path
           d="m 52.45,394.66 180.78,0"
           style="fill:none;stroke:#bebebe;stroke-width:0.06;stroke-linecap:round;stroke-linejoin:round;stroke-miterlimit:10;stroke-dasharray:none;stroke-opacity:1"
           id="path32"
           inkscape:connector-curvature="0" /><path
           d="m 52.45,444.93 180.78,0"
           style="fill:none;stroke:#bebebe;stroke-width:0.06;stroke-linecap:round;stroke-linejoin:round;stroke-miterlimit:10;stroke-dasharray:none;stroke-opacity:1"
           id="path34"
           inkscape:connector-curvature="0" /><path
           d="m 52.45,344.52 5.65,-0.08 5.65,-0.04 5.65,-0.01 5.65,0.01 33.89,4.35 5.65,1.94 5.65,-6.16 5.65,-0.12 5.65,-0.01 5.65,0.1 5.65,-0.01 5.65,2.22 5.65,2.21 5.65,-4.47 5.65,-0.01 5.64,-0.05 5.65,0 5.65,6.07 5.65,6.58 5.65,7.66 5.65,1.97 5.65,-6.67 5.65,2.75 5.65,-1.69 5.65,7.92 5.65,-4.78 5.65,-5.15 0,-14.66 -5.65,0 -5.65,0 -5.65,0 -5.65,0 -5.65,0 -5.65,0 -5.65,0 -5.65,0 -5.65,0 -5.65,0 -5.65,0 -5.64,0 -5.65,0 -5.65,0 -5.65,0 -5.65,0 -5.65,0 -5.65,0 -5.65,0 -5.65,0 -5.65,0 -5.65,0 -33.89,0 -5.65,0 -5.65,0 -5.65,0 -5.65,0 0,0.13 z"
           style="fill:#d4c3aa;fill-opacity:1;fill-rule:nonzero;stroke:none"
           id="path36"
           inkscape:connector-curvature="0" /></g></g><g
       id="g38"
       transform="translate(0,8)" /><g
       id="g40"
       transform="translate(0,8)"><g
         id="g42"
         clip-path="url(#clipPath44)"><path
           d="m 236.83,344.39 180.77,0"
           style="fill:none;stroke:#bebebe;stroke-width:0.06;stroke-linecap:round;stroke-linejoin:round;stroke-miterlimit:10;stroke-dasharray:none;stroke-opacity:1"
           id="path48"
           inkscape:connector-curvature="0" /><path
           d="m 236.83,394.66 180.77,0"
           style="fill:none;stroke:#bebebe;stroke-width:0.06;stroke-linecap:round;stroke-linejoin:round;stroke-miterlimit:10;stroke-dasharray:none;stroke-opacity:1"
           id="path50"
           inkscape:connector-curvature="0" /><path
           d="m 236.83,444.93 180.77,0"
           style="fill:none;stroke:#bebebe;stroke-width:0.06;stroke-linecap:round;stroke-linejoin:round;stroke-miterlimit:10;stroke-dasharray:none;stroke-opacity:1"
           id="path52"
           inkscape:connector-curvature="0" /><path
           d="m 236.83,344.41 5.65,0.01 5.64,0.24 5.65,0.06 5.65,2.07 5.65,0.73 5.65,4.62 5.65,-7.75 11.3,0.2 5.65,3.57 5.65,-2.88 5.65,0.02 5.65,3.15 5.64,2.27 5.65,1.19 5.65,4.87 5.65,3.95 5.65,4.4 5.65,-7.57 5.65,4.95 5.65,5.21 5.65,-18.42 5.65,5.15 5.65,14.42 5.65,7.42 5.64,-3.91 5.65,0.76 5.65,-6.3 5.65,-4.18 5.65,-0.18 5.65,-7.13 5.65,-1.37 0,-9.59 -5.65,0 -5.65,0 -5.65,0 -5.65,0 -5.65,0 -5.65,0 -5.64,0 -5.65,0 -5.65,0 -5.65,0 -5.65,0 -5.65,0 -5.65,0 -5.65,0 -5.65,0 -5.65,0 -5.65,0 -5.65,0 -5.64,0 -5.65,0 -5.65,0 -5.65,0 -5.65,0 -11.3,0 -5.65,0 -5.65,0 -5.65,0 -5.65,0 -5.65,0 -5.64,0 -5.65,0 0,0.02 z"
           style="fill:#d4c3aa;fill-opacity:1;fill-rule:nonzero;stroke:none"
           id="path54"
           inkscape:connector-curvature="0" /></g></g><g
       id="g56"
       transform="translate(0,8)" /><path
       d="m 52.45,202.04 180.78,0"
       style="fill:none;stroke:#bebebe;stroke-width:0.06;stroke-linecap:round;stroke-linejoin:round;stroke-miterlimit:10;stroke-dasharray:none;stroke-opacity:1"
       id="path66"
       inkscape:connector-curvature="0" /><path
       d="m 52.45,252.31 180.78,0"
       style="fill:none;stroke:#bebebe;stroke-width:0.06;stroke-linecap:round;stroke-linejoin:round;stroke-miterlimit:10;stroke-dasharray:none;stroke-opacity:1"
       id="path68"
       inkscape:connector-curvature="0" /><path
       d="m 52.45,302.57 180.78,0"
       style="fill:none;stroke:#bebebe;stroke-width:0.06;stroke-linecap:round;stroke-linejoin:round;stroke-miterlimit:10;stroke-dasharray:none;stroke-opacity:1"
       id="path70"
       inkscape:connector-curvature="0" /><path
       d="m 52.45,248.35 5.65,21.46 5.65,66.78 5.65,-13.7 5.65,-28.29 5.65,-7.95 5.65,-33.06 5.65,-15.23 5.65,7.04 5.64,-8.84 5.65,-19.13 5.65,12.48 5.65,17.08 5.65,-16.6 5.65,-8.22 5.65,-16.28 5.65,-3.15 5.65,4.22 5.65,0.37 5.65,4.53 5.65,-3.54 5.64,1.16 5.65,1.48 5.65,1.43 5.65,-4.3 5.65,-3.97 5.65,-1.45 5.65,-0.04 5.65,3.38 5.65,-2.33 5.65,0.08 5.65,-1.03 5.65,2.82 0,-3.51 -5.65,0 -5.65,0 -5.65,0 -5.65,0 -5.65,0 -5.65,0 -5.65,0 -5.65,0 -5.65,0 -5.65,0 -5.65,0 -5.64,0 -5.65,0 -5.65,0 -5.65,0 -5.65,0 -5.65,0 -5.65,0 -5.65,0 -5.65,0 -5.65,0 -5.65,0 -5.65,0 -5.64,0 -5.65,0 -5.65,0 -5.65,0 -5.65,0 -5.65,0 -5.65,0 -5.65,0 -5.65,0 0,46.31 z"
       style="fill:#ab3d3f;fill-opacity:1;fill-rule:nonzero;stroke:none"
       id="path72"
       inkscape:connector-curvature="0" /><g
       id="g74"
       transform="translate(0,8)" /><path
       d="m 236.83,202.04 180.77,0"
       style="fill:none;stroke:#bebebe;stroke-width:0.06;stroke-linecap:round;stroke-linejoin:round;stroke-miterlimit:10;stroke-dasharray:none;stroke-opacity:1"
       id="path84"
       inkscape:connector-curvature="0" /><path
       d="m 236.83,252.31 180.77,0"
       style="fill:none;stroke:#bebebe;stroke-width:0.06;stroke-linecap:round;stroke-linejoin:round;stroke-miterlimit:10;stroke-dasharray:none;stroke-opacity:1"
       id="path86"
       inkscape:connector-curvature="0" /><path
       d="m 236.83,302.57 180.77,0"
       style="fill:none;stroke:#bebebe;stroke-width:0.06;stroke-linecap:round;stroke-linejoin:round;stroke-miterlimit:10;stroke-dasharray:none;stroke-opacity:1"
       id="path88"
       inkscape:connector-curvature="0" /><path
       d="m 236.83,300.53 5.65,26.7 5.64,-50.05 5.65,-23.28 5.65,-7.48 5.65,20.13 5.65,14.82 5.65,19.44 5.65,-34.39 5.65,5.95 5.65,25.12 5.65,-24.37 5.65,-40.96 5.65,53.64 5.64,-20.93 5.65,21.54 5.65,-42.73 5.65,12.66 5.65,-42.42 5.65,25.14 5.65,-33.53 5.65,-2.54 5.65,32.31 5.65,38.46 5.65,-67.33 5.65,9.21 5.64,19.12 5.65,-20.86 5.65,19.47 5.65,26.97 5.65,-41.78 5.65,94.4 5.65,-62.19 0,-48.73 -5.65,0 -5.65,0 -5.65,0 -5.65,0 -5.65,0 -5.65,0 -5.64,0 -5.65,0 -5.65,0 -5.65,0 -5.65,0 -5.65,0 -5.65,0 -5.65,0 -5.65,0 -5.65,0 -5.65,0 -5.65,0 -5.64,0 -5.65,0 -5.65,0 -5.65,0 -5.65,0 -5.65,0 -5.65,0 -5.65,0 -5.65,0 -5.65,0 -5.65,0 -5.65,0 -5.64,0 -5.65,0 0,98.49 z"
       style="fill:#996666;fill-opacity:1;fill-rule:nonzero;stroke:none"
       id="path90"
       inkscape:connector-curvature="0" /><g
       id="g92"
       transform="translate(0,8)" /><g
       id="g94"
       transform="translate(0,8)"><g
         id="g96"
         clip-path="url(#clipPath98)"><path
           d="m 52.45,43.68 180.78,0"
           style="fill:none;stroke:#bebebe;stroke-width:0.06;stroke-linecap:round;stroke-linejoin:round;stroke-miterlimit:10;stroke-dasharray:none;stroke-opacity:1"
           id="path102"
           inkscape:connector-curvature="0" /><path
           d="m 52.45,93.95 180.78,0"
           style="fill:none;stroke:#bebebe;stroke-width:0.06;stroke-linecap:round;stroke-linejoin:round;stroke-miterlimit:10;stroke-dasharray:none;stroke-opacity:1"
           id="path104"
           inkscape:connector-curvature="0" /><path
           d="m 52.45,144.22 180.78,0"
           style="fill:none;stroke:#bebebe;stroke-width:0.06;stroke-linecap:round;stroke-linejoin:round;stroke-miterlimit:10;stroke-dasharray:none;stroke-opacity:1"
           id="path106"
           inkscape:connector-curvature="0" /><path
           d="m 52.45,56.17 5.65,-7.65 5.65,-0.76 5.65,0.87 5.65,12 5.65,3.4 5.65,21.18 5.65,0.28 5.65,-11.52 5.64,-0.66 5.65,0.62 5.65,28.36 5.65,-10.86 5.65,-0.25 5.65,15.97 5.65,-5.11 5.65,-24.21 5.65,26.47 5.65,34.99 5.65,-10.33 5.65,-37.61 5.64,9.2 5.65,10.32 5.65,-15.36 5.65,-0.93 5.65,2.57 5.65,-4.67 5.65,-21.14 5.65,2.03 5.65,-5.2 5.65,8.08 5.65,-9.62 5.65,-5.88 0,-17.07 -5.65,0 -5.65,0 -5.65,0 -5.65,0 -5.65,0 -5.65,0 -5.65,0 -5.65,0 -5.65,0 -5.65,0 -5.65,0 -5.64,0 -5.65,0 -5.65,0 -5.65,0 -5.65,0 -5.65,0 -5.65,0 -5.65,0 -5.65,0 -5.65,0 -5.65,0 -5.65,0 -5.64,0 -5.65,0 -5.65,0 -5.65,0 -5.65,0 -5.65,0 -5.65,0 -5.65,0 -5.65,0 0,12.49 z"
           style="fill:#d4c3aa;fill-opacity:1;fill-rule:nonzero;stroke:none"
           id="path108"
           inkscape:connector-curvature="0" /></g></g><g
       id="g110"
       transform="translate(0,8)" /><g
       id="g112"
       transform="translate(0,8)"><g
         id="g114"
         clip-path="url(#clipPath116)"><path
           d="m 236.83,43.68 180.77,0"
           style="fill:none;stroke:#bebebe;stroke-width:0.06;stroke-linecap:round;stroke-linejoin:round;stroke-miterlimit:10;stroke-dasharray:none;stroke-opacity:1"
           id="path120"
           inkscape:connector-curvature="0" /><path
           d="m 236.83,93.95 180.77,0"
           style="fill:none;stroke:#bebebe;stroke-width:0.06;stroke-linecap:round;stroke-linejoin:round;stroke-miterlimit:10;stroke-dasharray:none;stroke-opacity:1"
           id="path122"
           inkscape:connector-curvature="0" /><path
           d="m 236.83,144.22 180.77,0"
           style="fill:none;stroke:#bebebe;stroke-width:0.06;stroke-linecap:round;stroke-linejoin:round;stroke-miterlimit:10;stroke-dasharray:none;stroke-opacity:1"
           id="path124"
           inkscape:connector-curvature="0" /><path
           d="m 236.83,83.72 5.65,-25.62 5.64,-11.86 5.65,38.19 5.65,-9.88 5.65,-1.58 5.65,-16.06 5.65,12.88 5.65,26.38 5.65,-7.15 5.65,-26.47 5.65,-15.1 5.65,35.04 5.65,-27.48 5.64,-8.1 5.65,1.74 5.65,-1.51 5.65,0.07 5.65,2.36 5.65,-2.34 5.65,24.81 5.65,-2.08 5.65,-0.04 5.65,-12.43 5.65,-0.31 5.65,-8.34 5.64,-3.52 5.65,0.51 5.65,-0.54 5.65,2.39 5.65,0.71 5.65,2 5.65,-1.61 0,-5.1 -5.65,0 -5.65,0 -5.65,0 -5.65,0 -5.65,0 -5.65,0 -5.64,0 -5.65,0 -5.65,0 -5.65,0 -5.65,0 -5.65,0 -5.65,0 -5.65,0 -5.65,0 -5.65,0 -5.65,0 -5.65,0 -5.64,0 -5.65,0 -5.65,0 -5.65,0 -5.65,0 -5.65,0 -5.65,0 -5.65,0 -5.65,0 -5.65,0 -5.65,0 -5.65,0 -5.64,0 -5.65,0 0,40.04 z"
           style="fill:#d4c3aa;fill-opacity:1;fill-rule:nonzero;stroke:none"
           id="path126"
           inkscape:connector-curvature="0" /></g></g><g
       id="g128"
       transform="translate(0,8)" /><g
       id="g130"
       transform="translate(8,-24)"><text
         transform="matrix(1,0,0,-1,134.75,482.55)"
         style="font-variant:normal;font-weight:normal;font-size:7px;font-family:'Open Sans';-inkscape-font-specification:OpenSans;writing-mode:lr-tb;fill:#000000;fill-opacity:1;fill-rule:nonzero;stroke:none"
         id="text132"><tspan
           sodipodi:role="line"
           id="tspan134"
           style="font-style:normal;font-variant:normal;font-weight:bold;font-stretch:normal;font-family:'Open Sans';-inkscape-font-specification:'Open Sans Bold';font-size:8px"
           x="0"
           y="0">智利</tspan></text>
</g><g
       id="g136"
       transform="translate(0,8)" /><g
       id="g138"
       transform="translate(-1.6,1.6)"><text
         transform="scale(1,-1)"
         style="font-variant:normal;font-weight:normal;font-size:7px;font-family:'Open Sans';-inkscape-font-specification:OpenSans;writing-mode:lr-tb;fill:#000000;fill-opacity:1;fill-rule:nonzero;stroke:none"
         id="text140"
         x="319.57001"
         y="-456.94992"><tspan
           x="319.57001"
           y="-456.94992"
           sodipodi:role="line"
           id="tspan142"
           style="font-style:normal;font-variant:normal;font-weight:bold;font-stretch:normal;font-family:'Open Sans';-inkscape-font-specification:'Open Sans Bold';color:#000000;font-size:8px;line-height:normal;text-indent:0;text-align:start;text-decoration:none;text-decoration-line:none;text-decoration-style:solid;text-decoration-color:#000000;letter-spacing:normal;word-spacing:normal;text-transform:none;direction:ltr;block-progression:tb;writing-mode:lr-tb;baseline-shift:baseline;text-anchor:start;white-space:normal;clip-rule:nonzero;display:inline;overflow:visible;visibility:visible;opacity:1;isolation:auto;mix-blend-mode:normal;color-interpolation:sRGB;color-interpolation-filters:linearRGB;solid-color:#000000;solid-opacity:1;fill:#000000;fill-opacity:1;fill-rule:nonzero;stroke:none;stroke-width:1;stroke-linecap:butt;stroke-linejoin:miter;stroke-miterlimit:4;stroke-dasharray:none;stroke-dashoffset:0;stroke-opacity:1;filter-blend-mode:normal;filter-gaussianBlur-deviation:0;color-rendering:auto;image-rendering:auto;shape-rendering:auto;text-rendering:auto;enable-background:accumulate">秘鲁</tspan></text>
</g><g
       id="g144"
       transform="translate(0,8)" /><g
       id="g146"
       transform="translate(19.104899,8)"><text
         transform="scale(1,-1)"
         style="font-variant:normal;font-weight:normal;font-size:7px;font-family:'Open Sans';-inkscape-font-specification:OpenSans;writing-mode:lr-tb;fill:#000000;fill-opacity:1;fill-rule:nonzero;stroke:none"
         id="text148"
         x="123.03"
         y="-306.5899"><tspan
           x="123.03"
           y="-306.5899"
           sodipodi:role="line"
           id="tspan150"
           style="color:#000000;font-style:normal;font-variant:normal;font-weight:bold;font-stretch:normal;font-size:8px;line-height:normal;font-family:'Open Sans';-inkscape-font-specification:'Open Sans Bold';text-indent:0;text-align:start;text-decoration:none;text-decoration-line:none;text-decoration-style:solid;text-decoration-color:#000000;letter-spacing:normal;word-spacing:normal;text-transform:none;direction:ltr;block-progression:tb;writing-mode:lr-tb;baseline-shift:baseline;text-anchor:start;white-space:normal;clip-rule:nonzero;display:inline;overflow:visible;visibility:visible;opacity:1;isolation:auto;mix-blend-mode:normal;color-interpolation:sRGB;color-interpolation-filters:linearRGB;solid-color:#000000;solid-opacity:1;fill:#000000;fill-opacity:1;fill-rule:nonzero;stroke:none;stroke-width:1;stroke-linecap:butt;stroke-linejoin:miter;stroke-miterlimit:4;stroke-dasharray:none;stroke-dashoffset:0;stroke-opacity:1;color-rendering:auto;image-rendering:auto;shape-rendering:auto;text-rendering:auto;enable-background:accumulate;filter-blend-mode:normal;filter-gaussianBlur-deviation:0">南非</tspan></text>
</g><g
       id="g152"
       transform="translate(0,8)" /><g
       id="g154"
       transform="translate(16.600288,8)"><text
         transform="scale(1,-1)"
         style="font-variant:normal;font-weight:normal;font-size:7px;font-family:'Open Sans';-inkscape-font-specification:OpenSans;writing-mode:lr-tb;fill:#000000;fill-opacity:1;fill-rule:nonzero;stroke:none"
         id="text156"
         x="300.76001"
         y="-306.5899"><tspan
           sodipodi:role="line"
           id="tspan158"
           style="color:#000000;font-style:normal;font-variant:normal;font-weight:bold;font-stretch:normal;font-size:8px;line-height:normal;font-family:'Open Sans';-inkscape-font-specification:'Open Sans Bold';text-indent:0;text-align:start;text-decoration:none;text-decoration-line:none;text-decoration-style:solid;text-decoration-color:#000000;letter-spacing:normal;word-spacing:normal;text-transform:none;direction:ltr;block-progression:tb;writing-mode:lr-tb;baseline-shift:baseline;text-anchor:start;white-space:normal;clip-rule:nonzero;display:inline;overflow:visible;visibility:visible;opacity:1;isolation:auto;mix-blend-mode:normal;color-interpolation:sRGB;color-interpolation-filters:linearRGB;solid-color:#000000;solid-opacity:1;fill:#000000;fill-opacity:1;fill-rule:nonzero;stroke:none;stroke-width:1;stroke-linecap:butt;stroke-linejoin:miter;stroke-miterlimit:4;stroke-dasharray:none;stroke-dashoffset:0;stroke-opacity:1;color-rendering:auto;image-rendering:auto;shape-rendering:auto;text-rendering:auto;enable-background:accumulate;filter-blend-mode:normal;filter-gaussianBlur-deviation:0"
           x="300.76001"
           y="-306.5899">英国</tspan></text>
</g><g
       id="g160"
       transform="translate(0,8)" /><g
       id="g162"
       transform="translate(40.685506,6.4)"><text
         transform="scale(1,-1)"
         style="font-variant:normal;font-weight:normal;font-size:7px;font-family:'Open Sans';-inkscape-font-specification:OpenSans;writing-mode:lr-tb;fill:#000000;fill-opacity:1;fill-rule:nonzero;stroke:none"
         id="text164"
         x="102.55"
         y="-156.23991"><tspan
           sodipodi:role="line"
           id="tspan166"
           style="color:#000000;font-style:normal;font-variant:normal;font-weight:bold;font-stretch:normal;font-size:8px;line-height:normal;font-family:'Open Sans';-inkscape-font-specification:'Open Sans Bold';text-indent:0;text-align:start;text-decoration:none;text-decoration-line:none;text-decoration-style:solid;text-decoration-color:#000000;letter-spacing:normal;word-spacing:normal;text-transform:none;direction:ltr;block-progression:tb;writing-mode:lr-tb;baseline-shift:baseline;text-anchor:start;white-space:normal;clip-rule:nonzero;display:inline;overflow:visible;visibility:visible;opacity:1;isolation:auto;mix-blend-mode:normal;color-interpolation:sRGB;color-interpolation-filters:linearRGB;solid-color:#000000;solid-opacity:1;fill:#000000;fill-opacity:1;fill-rule:nonzero;stroke:none;stroke-width:1;stroke-linecap:butt;stroke-linejoin:miter;stroke-miterlimit:4;stroke-dasharray:none;stroke-dashoffset:0;stroke-opacity:1;color-rendering:auto;image-rendering:auto;shape-rendering:auto;text-rendering:auto;enable-background:accumulate"
           x="102.55"
           y="-156.23991">美国</tspan></text>
</g><g
       id="g168"
       transform="translate(0,8)" /><g
       id="g170"
       transform="translate(9.6,6.4)"><text
         transform="scale(1,-1)"
         style="font-variant:normal;font-weight:normal;font-size:7px;font-family:'Open Sans';-inkscape-font-specification:OpenSans;writing-mode:lr-tb;fill:#000000;fill-opacity:1;fill-rule:nonzero;stroke:none"
         id="text172"
         x="306.89001"
         y="-156.23991"><tspan
           sodipodi:role="line"
           id="tspan174"
           style="color:#000000;font-style:normal;font-variant:normal;font-weight:bold;font-stretch:normal;font-size:8px;line-height:normal;font-family:'Open Sans';-inkscape-font-specification:'Open Sans Bold';text-indent:0;text-align:start;text-decoration:none;text-decoration-line:none;text-decoration-style:solid;text-decoration-color:#000000;letter-spacing:normal;word-spacing:normal;text-transform:none;direction:ltr;block-progression:tb;writing-mode:lr-tb;baseline-shift:baseline;text-anchor:start;white-space:normal;clip-rule:nonzero;display:inline;overflow:visible;visibility:visible;opacity:1;isolation:auto;mix-blend-mode:normal;color-interpolation:sRGB;color-interpolation-filters:linearRGB;solid-color:#000000;solid-opacity:1;fill:#000000;fill-opacity:1;fill-rule:nonzero;stroke:none;stroke-width:1;stroke-linecap:butt;stroke-linejoin:miter;stroke-miterlimit:4;stroke-dasharray:none;stroke-dashoffset:0;stroke-opacity:1;color-rendering:auto;image-rendering:auto;shape-rendering:auto;text-rendering:auto;enable-background:accumulate"
           x="306.89001"
           y="-156.23991">俄罗斯</tspan></text>
</g><g
       id="g176"
       transform="translate(0,8)" /><g
       id="g178"
       transform="translate(0,8)" /><g
       id="g180"
       transform="translate(0,8)"><text
         transform="matrix(1,0,0,-1,35.6,341.89)"
         style="font-variant:normal;font-weight:normal;font-size:7px;font-family:'Open Sans';-inkscape-font-specification:OpenSans;writing-mode:lr-tb;fill:#000000;fill-opacity:1;fill-rule:nonzero;stroke:none"
         id="text182"><tspan
           x="0 4.0040002"
           y="0"
           sodipodi:role="line"
           id="tspan184">0%</tspan></text>
<text
         transform="matrix(1,0,0,-1,31.6,392.16)"
         style="font-variant:normal;font-weight:normal;font-size:7px;font-family:'Open Sans';-inkscape-font-specification:OpenSans;writing-mode:lr-tb;fill:#000000;fill-opacity:1;fill-rule:nonzero;stroke:none"
         id="text186"><tspan
           x="0 4.0040002 8.0080004"
           y="0"
           sodipodi:role="line"
           id="tspan188">20%</tspan></text>
<text
         transform="matrix(1,0,0,-1,31.6,442.43)"
         style="font-variant:normal;font-weight:normal;font-size:7px;font-family:'Open Sans';-inkscape-font-specification:OpenSans;writing-mode:lr-tb;fill:#000000;fill-opacity:1;fill-rule:nonzero;stroke:none"
         id="text190"><tspan
           x="0 4.0040002 8.0080004"
           y="0"
           sodipodi:role="line"
           id="tspan192">40%</tspan></text>
</g><g
       id="g194"
       transform="translate(0,8)" /><g
       id="g196"
       transform="translate(0,8)" /><g
       id="g198"
       transform="translate(0,8)" /><g
       id="g200"
       transform="translate(0,8)" /><g
       id="g202"
       transform="translate(0,8)" /><g
       id="g204"
       transform="translate(0,8)" /><g
       id="g206"
       transform="translate(0,8)" /><g
       id="g208"
       transform="translate(0,8)" /><g
       id="g210"
       transform="translate(0,8)" /><g
       id="g212"
       transform="translate(0,8)"><text
         transform="matrix(1,0,0,-1,35.6,191.54)"
         style="font-variant:normal;font-weight:normal;font-size:7px;font-family:'Open Sans';-inkscape-font-specification:OpenSans;writing-mode:lr-tb;fill:#000000;fill-opacity:1;fill-rule:nonzero;stroke:none"
         id="text214"><tspan
           x="0 4.0040002"
           y="0"
           sodipodi:role="line"
           id="tspan216">0%</tspan></text>
<text
         transform="matrix(1,0,0,-1,31.6,241.81)"
         style="font-variant:normal;font-weight:normal;font-size:7px;font-family:'Open Sans';-inkscape-font-specification:OpenSans;writing-mode:lr-tb;fill:#000000;fill-opacity:1;fill-rule:nonzero;stroke:none"
         id="text218"><tspan
           x="0 4.0040002 8.0080004"
           y="0"
           sodipodi:role="line"
           id="tspan220">20%</tspan></text>
<text
         transform="matrix(1,0,0,-1,31.6,292.07)"
         style="font-variant:normal;font-weight:normal;font-size:7px;font-family:'Open Sans';-inkscape-font-specification:OpenSans;writing-mode:lr-tb;fill:#000000;fill-opacity:1;fill-rule:nonzero;stroke:none"
         id="text222"><tspan
           x="0 4.0040002 8.0080004"
           y="0"
           sodipodi:role="line"
           id="tspan224">40%</tspan></text>
</g><g
       id="g226"
       transform="translate(0,8)" /><g
       id="g228"
       transform="translate(0,8)" /><g
       id="g230"
       transform="translate(0,8)" /><g
       id="g232"
       transform="translate(0,8)" /><g
       id="g234"
       transform="translate(0,8)" /><g
       id="g236"
       transform="translate(0,8)" /><g
       id="g238"
       transform="translate(0,8)" /><g
       id="g240"
       transform="translate(0,8)" /><g
       id="g242"
       transform="translate(0,8)" /><g
       id="g244"
       transform="translate(0,8)"><text
         transform="matrix(1,0,0,-1,35.6,41.18)"
         style="font-variant:normal;font-weight:normal;font-size:7px;font-family:'Open Sans';-inkscape-font-specification:OpenSans;writing-mode:lr-tb;fill:#000000;fill-opacity:1;fill-rule:nonzero;stroke:none"
         id="text246"><tspan
           x="0 4.0040002"
           y="0"
           sodipodi:role="line"
           id="tspan248">0%</tspan></text>
<text
         transform="matrix(1,0,0,-1,31.6,91.45)"
         style="font-variant:normal;font-weight:normal;font-size:7px;font-family:'Open Sans';-inkscape-font-specification:OpenSans;writing-mode:lr-tb;fill:#000000;fill-opacity:1;fill-rule:nonzero;stroke:none"
         id="text250"><tspan
           x="0 4.0040002 8.0080004"
           y="0"
           sodipodi:role="line"
           id="tspan252">20%</tspan></text>
<text
         transform="matrix(1,0,0,-1,31.6,141.72)"
         style="font-variant:normal;font-weight:normal;font-size:7px;font-family:'Open Sans';-inkscape-font-specification:OpenSans;writing-mode:lr-tb;fill:#000000;fill-opacity:1;fill-rule:nonzero;stroke:none"
         id="text254"><tspan
           x="0 4.0040002 8.0080004"
           y="0"
           sodipodi:role="line"
           id="tspan256">40%</tspan></text>
</g><g
       id="g258"
       transform="translate(0,8)" /><g
       id="g260"
       transform="translate(0,8)" /><g
       id="g262"
       transform="translate(0,8)" /><g
       id="g264"
       transform="translate(0,8)" /><g
       id="g266"
       transform="translate(0,8)" /><g
       id="g268"
       transform="translate(0,8)" /><g
       id="g270"
       transform="translate(0,8)" /><g
       id="g272"
       transform="translate(0,8)" /><g
       id="g274"
       transform="translate(0,8)" /><g
       id="g276"
       transform="translate(0,8)" /><g
       id="g278"
       transform="translate(0,8)" /><g
       id="g280"
       transform="translate(0,8)" /><g
       id="g282"
       transform="translate(0,8)" /><g
       id="g284"
       transform="translate(0,8)" /><g
       id="g286"
       transform="translate(0,8)" /><g
       id="g288"
       transform="translate(0,8)" /><g
       id="g290"
       transform="translate(0,8)" /><g
       id="g292"
       transform="translate(0,8)"><path
         d="m 97.65,39.43 0,4.25"
         style="fill:none;stroke:#000000;stroke-width:1.05999994;stroke-linecap:butt;stroke-linejoin:round;stroke-miterlimit:10;stroke-dasharray:none;stroke-opacity:1"
         id="path294"
         inkscape:connector-curvature="0" /><path
         d="m 154.14,39.43 0,4.25"
         style="fill:none;stroke:#000000;stroke-width:1.05999994;stroke-linecap:butt;stroke-linejoin:round;stroke-miterlimit:10;stroke-dasharray:none;stroke-opacity:1"
         id="path296"
         inkscape:connector-curvature="0" /><path
         d="m 210.63,39.43 0,4.25"
         style="fill:none;stroke:#000000;stroke-width:1.05999994;stroke-linecap:butt;stroke-linejoin:round;stroke-miterlimit:10;stroke-dasharray:none;stroke-opacity:1"
         id="path298"
         inkscape:connector-curvature="0" /></g><g
       id="g300"
       transform="translate(0,8)" /><g
       id="g302"
       transform="translate(0,8)"><text
         transform="matrix(1,0,0,-1,89.64,31.6)"
         style="font-variant:normal;font-weight:normal;font-size:7px;font-family:'Open Sans';-inkscape-font-specification:OpenSans;writing-mode:lr-tb;fill:#000000;fill-opacity:1;fill-rule:nonzero;stroke:none"
         id="text304"><tspan
           x="0 4.0040002 8.0080004 12.012"
           y="0"
           sodipodi:role="line"
           id="tspan306">1990</tspan></text>
<text
         transform="matrix(1,0,0,-1,146.13,31.6)"
         style="font-variant:normal;font-weight:normal;font-size:7px;font-family:'Open Sans';-inkscape-font-specification:OpenSans;writing-mode:lr-tb;fill:#000000;fill-opacity:1;fill-rule:nonzero;stroke:none"
         id="text308"><tspan
           x="0 4.0040002 8.0080004 12.012"
           y="0"
           sodipodi:role="line"
           id="tspan310">2000</tspan></text>
<text
         transform="matrix(1,0,0,-1,202.62,31.6)"
         style="font-variant:normal;font-weight:normal;font-size:7px;font-family:'Open Sans';-inkscape-font-specification:OpenSans;writing-mode:lr-tb;fill:#000000;fill-opacity:1;fill-rule:nonzero;stroke:none"
         id="text312"><tspan
           x="0 4.0040002 8.0080004 12.012"
           y="0"
           sodipodi:role="line"
           id="tspan314">2010</tspan></text>
</g><g
       id="g316"
       transform="translate(0,8)" /><g
       id="g318"
       transform="translate(0,8)" /><g
       id="g320"
       transform="translate(0,8)" /><g
       id="g322"
       transform="translate(0,8)" /><g
       id="g324"
       transform="translate(0,8)" /><g
       id="g326"
       transform="translate(0,8)"><path
         d="m 282.02,39.43 0,4.25"
         style="fill:none;stroke:#000000;stroke-width:1.05999994;stroke-linecap:butt;stroke-linejoin:round;stroke-miterlimit:10;stroke-dasharray:none;stroke-opacity:1"
         id="path328"
         inkscape:connector-curvature="0" /><path
         d="m 338.51,39.43 0,4.25"
         style="fill:none;stroke:#000000;stroke-width:1.05999994;stroke-linecap:butt;stroke-linejoin:round;stroke-miterlimit:10;stroke-dasharray:none;stroke-opacity:1"
         id="path330"
         inkscape:connector-curvature="0" /><path
         d="m 395,39.43 0,4.25"
         style="fill:none;stroke:#000000;stroke-width:1.05999994;stroke-linecap:butt;stroke-linejoin:round;stroke-miterlimit:10;stroke-dasharray:none;stroke-opacity:1"
         id="path332"
         inkscape:connector-curvature="0" /></g><g
       id="g334"
       transform="translate(0,8)" /><g
       id="g336"
       transform="translate(0,8)"><text
         transform="matrix(1,0,0,-1,274.01,31.6)"
         style="font-variant:normal;font-weight:normal;font-size:7px;font-family:'Open Sans';-inkscape-font-specification:OpenSans;writing-mode:lr-tb;fill:#000000;fill-opacity:1;fill-rule:nonzero;stroke:none"
         id="text338"><tspan
           x="0 4.0040002 8.0080004 12.012"
           y="0"
           sodipodi:role="line"
           id="tspan340">1990</tspan></text>
<text
         transform="matrix(1,0,0,-1,330.5,31.6)"
         style="font-variant:normal;font-weight:normal;font-size:7px;font-family:'Open Sans';-inkscape-font-specification:OpenSans;writing-mode:lr-tb;fill:#000000;fill-opacity:1;fill-rule:nonzero;stroke:none"
         id="text342"><tspan
           x="0 4.0040002 8.0080004 12.012"
           y="0"
           sodipodi:role="line"
           id="tspan344">2000</tspan></text>
<text
         transform="matrix(1,0,0,-1,387,31.6)"
         style="font-variant:normal;font-weight:normal;font-size:7px;font-family:'Open Sans';-inkscape-font-specification:OpenSans;writing-mode:lr-tb;fill:#000000;fill-opacity:1;fill-rule:nonzero;stroke:none"
         id="text346"><tspan
           x="0 4.0040002 8.0080004 12.012"
           y="0"
           sodipodi:role="line"
           id="tspan348">2010</tspan></text>
</g><g
       id="g350"
       transform="translate(0,8)" /><g
       id="g352"
       transform="translate(0,8)" /><g
       id="g354"
       transform="translate(0,8)" /><g
       id="g356"
       transform="translate(0,8)" /><g
       id="g358"
       transform="translate(0,8)" /><g
       id="g360"
       transform="translate(0,8)" /><g
       id="g362"
       transform="translate(-1.6,-305.507)"><text
         transform="matrix(0,1,1,0,0,0)"
         style="font-variant:normal;font-weight:600;font-size:14px;font-family:'Open Sans';-inkscape-font-specification:OpenSans-Semibold;writing-mode:lr-tb;fill:#7e8279;fill-opacity:1;fill-rule:nonzero;stroke:none"
         id="text364"
         x="502.52829"
         y="24.4"><tspan
           x="502.52829"
           y="24.4"
           sodipodi:role="line"
           id="tspan366">占瑞士黄金年进口量百分比</tspan></text>
</g><g
       id="g368"
       transform="translate(0,8)" /><g
       id="g376"
       transform="translate(0,8)" /><g
       id="g378"
       transform="translate(0,8)" /><text
       xml:space="preserve"
       style="font-style:normal;font-variant:normal;font-weight:normal;font-stretch:normal;font-size:14px;line-height:125%;font-family:'Open Sans';-inkscape-font-specification:'Open Sans';text-align:start;letter-spacing:0px;word-spacing:0px;writing-mode:lr-tb;text-anchor:start;fill:#000000;fill-opacity:1;stroke:none;stroke-width:1px;stroke-linecap:butt;stroke-linejoin:miter;stroke-opacity:1"
       x="13.712546"
       y="-513.3241"
       id="text3915"
       sodipodi:linespacing="125%"
       transform="scale(1,-1)"><tspan
         sodipodi:role="line"
         x="13.712546"
         y="-513.3241"
         id="tspan3919"
         style="font-style:normal;font-variant:normal;font-weight:600;font-stretch:normal;font-size:15px;font-family:'Open Sans';-inkscape-font-specification:'Open Sans Semi-Bold'">向瑞士出口黄金的6个主要国家</tspan></text>
<text
       xml:space="preserve"
       style="font-style:normal;font-variant:normal;font-weight:normal;font-stretch:normal;font-size:9px;line-height:125%;font-family:'Open Sans';-inkscape-font-specification:'Open Sans';text-align:start;letter-spacing:0px;word-spacing:0px;writing-mode:lr-tb;text-anchor:start;fill:#000000;fill-opacity:1;stroke:none;stroke-width:1px;stroke-linecap:butt;stroke-linejoin:miter;stroke-opacity:1"
       x="13.787184"
       y="-494.57617"
       id="text4331"
       sodipodi:linespacing="125%"
       transform="scale(1,-1)"><tspan
         sodipodi:role="line"
         x="13.787184"
         y="-494.57617"
         id="tspan4343"
         style="font-size:8px">瑞士1982-2014年间进口黄金总量的60%均来自这6国。</tspan></text>
<text
       xml:space="preserve"
       style="font-style:normal;font-variant:normal;font-weight:normal;font-stretch:normal;font-size:9px;line-height:125%;font-family:'Open Sans';-inkscape-font-specification:'Open Sans';text-align:start;letter-spacing:0px;word-spacing:0px;writing-mode:lr-tb;text-anchor:start;display:inline;fill:#000000;fill-opacity:1;stroke:none;stroke-width:1px;stroke-linecap:butt;stroke-linejoin:miter;stroke-opacity:1"
       x="351.51144"
       y="-14.687233"
       id="text3627"
       sodipodi:linespacing="125%"
       transform="scale(1,-1)"><tspan
         sodipodi:role="line"
         id="tspan3629"
         x="351.51144"
         y="-14.687233"
         style="font-style:italic;font-variant:normal;font-weight:normal;font-stretch:normal;font-size:6px;font-family:'Open Sans';-inkscape-font-specification:'Open Sans Italic';fill:#666666">来源：瑞士联邦海关总署</tspan></text>
</g></svg>