<?xml version="1.0" encoding="UTF-8" standalone="no"?>
<!-- Created with Inkscape (http://www.inkscape.org/) -->

<svg
   xmlns:dc="http://purl.org/dc/elements/1.1/"
   xmlns:cc="http://creativecommons.org/ns#"
   xmlns:rdf="http://www.w3.org/1999/02/22-rdf-syntax-ns#"
   xmlns:svg="http://www.w3.org/2000/svg"
   xmlns="http://www.w3.org/2000/svg"
   xmlns:sodipodi="http://sodipodi.sourceforge.net/DTD/sodipodi-0.dtd"
   xmlns:inkscape="http://www.inkscape.org/namespaces/inkscape"
   id="svg2"
   version="1.1"
   inkscape:version="0.91 r13725"
   xml:space="preserve"
   width="540"
   height="675"
   viewBox="0 0 540 675"
   sodipodi:docname="topGoldExport.svg"><metadata
     id="metadata8"><rdf:RDF><cc:Work
         rdf:about=""><dc:format>image/svg+xml</dc:format><dc:type
           rdf:resource="http://purl.org/dc/dcmitype/StillImage" /><dc:title /></cc:Work></rdf:RDF></metadata><defs
     id="defs6"><clipPath
       clipPathUnits="userSpaceOnUse"
       id="clipPath26"><path
         d="m 52.45,344.39 180.77,0 0,134.56 -180.77,0 0,-134.56 z"
         id="path28"
         inkscape:connector-curvature="0" /></clipPath><clipPath
       clipPathUnits="userSpaceOnUse"
       id="clipPath44"><path
         d="m 236.83,344.39 180.77,0 0,134.56 -180.77,0 0,-134.56 z"
         id="path46"
         inkscape:connector-curvature="0" /></clipPath><clipPath
       clipPathUnits="userSpaceOnUse"
       id="clipPath62"><path
         d="m 52.45,194.04 180.77,0 0,134.56 -180.77,0 0,-134.56 z"
         id="path64"
         inkscape:connector-curvature="0" /></clipPath><clipPath
       clipPathUnits="userSpaceOnUse"
       id="clipPath80"><path
         d="m 236.83,194.04 180.77,0 0,134.56 -180.77,0 0,-134.56 z"
         id="path82"
         inkscape:connector-curvature="0" /></clipPath><clipPath
       clipPathUnits="userSpaceOnUse"
       id="clipPath98"><path
         d="m 52.45,43.68 180.77,0 0,134.56 -180.77,0 0,-134.56 z"
         id="path100"
         inkscape:connector-curvature="0" /></clipPath><clipPath
       clipPathUnits="userSpaceOnUse"
       id="clipPath116"><path
         d="m 236.83,43.68 180.77,0 0,134.56 -180.77,0 0,-134.56 z"
         id="path118"
         inkscape:connector-curvature="0" /></clipPath></defs><sodipodi:namedview
     pagecolor="#ffffff"
     bordercolor="#666666"
     borderopacity="1"
     objecttolerance="10"
     gridtolerance="10"
     guidetolerance="10"
     inkscape:pageopacity="0"
     inkscape:pageshadow="2"
     inkscape:window-width="2560"
     inkscape:window-height="1355"
     id="namedview4"
     showgrid="false"
     inkscape:zoom="1.4419964"
     inkscape:cx="342.34396"
     inkscape:cy="287.52383"
     inkscape:window-x="1280"
     inkscape:window-y="0"
     inkscape:window-maximized="1"
     inkscape:current-layer="g10" /><g
     id="g10"
     inkscape:groupmode="layer"
     inkscape:label="topGoldExport"
     transform="matrix(1.25,0,0,-1.25,0,675)"><g
       id="g12"
       transform="translate(0,-3.2)" /><g
       id="g14"
       transform="translate(0,-3.2)" /><g
       id="g16"
       transform="translate(0,-3.2)" /><g
       id="g18"
       transform="translate(0,-3.2)" /><g
       id="g20"
       transform="translate(0,-3.2)" /><g
       id="g22"
       transform="translate(0,-3.2)"><g
         id="g24"
         clip-path="url(#clipPath26)"><path
           d="m 52.45,344.39 180.78,0"
           style="fill:none;stroke:#bebebe;stroke-width:0.06;stroke-linecap:round;stroke-linejoin:round;stroke-miterlimit:10;stroke-dasharray:none;stroke-opacity:1"
           id="path30"
           inkscape:connector-curvature="0" /><path
           d="m 52.45,407.26 180.78,0"
           style="fill:none;stroke:#bebebe;stroke-width:0.06;stroke-linecap:round;stroke-linejoin:round;stroke-miterlimit:10;stroke-dasharray:none;stroke-opacity:1"
           id="path32"
           inkscape:connector-curvature="0" /><path
           d="m 52.45,470.13 180.78,0"
           style="fill:none;stroke:#bebebe;stroke-width:0.06;stroke-linecap:round;stroke-linejoin:round;stroke-miterlimit:10;stroke-dasharray:none;stroke-opacity:1"
           id="path34"
           inkscape:connector-curvature="0" /><path
           d="m 52.45,353.15 5.65,-4.79 5.65,22.1 5.65,-3.69 5.65,-16.2 5.65,9.24 5.65,14.27 5.65,-11.56 5.65,-6.73 5.64,-1.97 5.65,-3.4 5.65,0.82 5.65,-1.22 5.65,-0.93 5.65,-2.16 5.65,5.7 5.65,-6.62 5.65,5.42 5.65,-1.53 5.65,-5.37 5.65,0.1 5.64,0.54 5.65,2.92 5.65,-0.14 5.65,-1.08 5.65,5.62 5.65,3.38 5.65,-5.02 5.65,13.55 5.65,14.73 5.65,-7.18 5.65,80.65 5.65,-77.59 0,-30.62 -5.65,0 -5.65,0 -5.65,0 -5.65,0 -5.65,0 -5.65,0 -5.65,0 -5.65,0 -5.65,0 -5.65,0 -5.65,0 -5.64,0 -5.65,0 -5.65,0 -5.65,0 -5.65,0 -5.65,0 -5.65,0 -5.65,0 -5.65,0 -5.65,0 -5.65,0 -5.65,0 -5.64,0 -5.65,0 -5.65,0 -5.65,0 -5.65,0 -5.65,0 -5.65,0 -5.65,0 -5.65,0 0,8.76 z"
           style="fill:#d4c3aa;fill-opacity:1;fill-rule:nonzero;stroke:none"
           id="path36"
           inkscape:connector-curvature="0" /></g></g><g
       id="g38"
       transform="translate(0,-3.2)" /><path
       d="m 236.83,341.19 180.77,0"
       style="fill:none;stroke:#bebebe;stroke-width:0.06;stroke-linecap:round;stroke-linejoin:round;stroke-miterlimit:10;stroke-dasharray:none;stroke-opacity:1"
       id="path48"
       inkscape:connector-curvature="0" /><path
       d="m 236.83,404.06 180.77,0"
       style="fill:none;stroke:#bebebe;stroke-width:0.06;stroke-linecap:round;stroke-linejoin:round;stroke-miterlimit:10;stroke-dasharray:none;stroke-opacity:1"
       id="path50"
       inkscape:connector-curvature="0" /><path
       d="m 236.83,466.93 180.77,0"
       style="fill:none;stroke:#bebebe;stroke-width:0.06;stroke-linecap:round;stroke-linejoin:round;stroke-miterlimit:10;stroke-dasharray:none;stroke-opacity:1"
       id="path52"
       inkscape:connector-curvature="0" /><path
       d="m 236.83,341.34 5.65,0.11 5.64,0.06 5.65,-0.15 5.65,-0.06 5.65,-0.02 5.65,0.1 5.65,0.22 5.65,0.16 5.65,0.25 5.65,2.3 5.65,3.69 5.65,6.21 5.65,-2.86 5.64,5.81 5.65,4.08 5.65,33.04 5.65,21.96 5.65,-0.6 5.65,20.46 5.65,-29.38 5.65,9.2 5.65,13.15 5.65,15.65 5.65,30.89 5.65,0.14 5.64,-31.81 5.65,-4.67 5.65,28.87 5.65,-2.73 5.65,-21.43 5.65,-47.64 5.65,-3 0,-52.15 -5.65,0 -5.65,0 -5.65,0 -5.65,0 -5.65,0 -5.65,0 -5.64,0 -5.65,0 -5.65,0 -5.65,0 -5.65,0 -5.65,0 -5.65,0 -5.65,0 -5.65,0 -5.65,0 -5.65,0 -5.65,0 -5.64,0 -5.65,0 -5.65,0 -5.65,0 -5.65,0 -5.65,0 -5.65,0 -5.65,0 -5.65,0 -5.65,0 -5.65,0 -5.65,0 -5.64,0 -5.65,0 0,0.15 z"
       style="fill:#999966;fill-opacity:1;fill-rule:nonzero;stroke:none"
       id="path54"
       inkscape:connector-curvature="0" /><g
       id="g56"
       transform="translate(0,-3.2)" /><g
       id="g58"
       transform="translate(0,-3.2)"><g
         id="g60"
         clip-path="url(#clipPath62)"><path
           d="m 52.45,194.04 180.78,0"
           style="fill:none;stroke:#bebebe;stroke-width:0.06;stroke-linecap:round;stroke-linejoin:round;stroke-miterlimit:10;stroke-dasharray:none;stroke-opacity:1"
           id="path66"
           inkscape:connector-curvature="0" /><path
           d="m 52.45,256.9 180.78,0"
           style="fill:none;stroke:#bebebe;stroke-width:0.06;stroke-linecap:round;stroke-linejoin:round;stroke-miterlimit:10;stroke-dasharray:none;stroke-opacity:1"
           id="path68"
           inkscape:connector-curvature="0" /><path
           d="m 52.45,319.77 180.78,0"
           style="fill:none;stroke:#bebebe;stroke-width:0.06;stroke-linecap:round;stroke-linejoin:round;stroke-miterlimit:10;stroke-dasharray:none;stroke-opacity:1"
           id="path70"
           inkscape:connector-curvature="0" /><path
           d="m 52.45,278.5 5.65,7.63 5.65,-18.63 5.65,5.65 5.65,-7.73 5.65,16.3 5.65,-5.89 5.65,-5.51 5.65,11.26 5.64,14.08 5.65,-8.97 5.65,12.66 5.65,-3.86 5.65,-14.54 5.65,-6.54 5.65,-19.63 5.65,9.34 5.65,7.86 5.65,-0.97 5.65,-0.6 5.65,16.95 5.64,-18.24 5.65,-19.67 5.65,-19.97 5.65,0.35 5.65,-5.26 5.65,-18.26 5.65,-2.34 5.65,-1.35 5.65,-2.77 5.65,1.11 5.65,-2.36 5.65,7.26 0,-11.82 -5.65,0 -5.65,0 -5.65,0 -5.65,0 -5.65,0 -5.65,0 -5.65,0 -5.65,0 -5.65,0 -5.65,0 -5.65,0 -5.64,0 -5.65,0 -5.65,0 -5.65,0 -5.65,0 -5.65,0 -5.65,0 -5.65,0 -5.65,0 -5.65,0 -5.65,0 -5.65,0 -5.64,0 -5.65,0 -5.65,0 -5.65,0 -5.65,0 -5.65,0 -5.65,0 -5.65,0 -5.65,0 0,84.46 z"
           style="fill:#d4c3aa;fill-opacity:1;fill-rule:nonzero;stroke:none"
           id="path72"
           inkscape:connector-curvature="0" /></g></g><g
       id="g74"
       transform="translate(0,-3.2)" /><g
       id="g76"
       transform="translate(0,-3.2)"><g
         id="g78"
         clip-path="url(#clipPath80)"><path
           d="m 236.83,194.04 180.77,0"
           style="fill:none;stroke:#bebebe;stroke-width:0.06;stroke-linecap:round;stroke-linejoin:round;stroke-miterlimit:10;stroke-dasharray:none;stroke-opacity:1"
           id="path84"
           inkscape:connector-curvature="0" /><path
           d="m 236.83,256.9 180.77,0"
           style="fill:none;stroke:#bebebe;stroke-width:0.06;stroke-linecap:round;stroke-linejoin:round;stroke-miterlimit:10;stroke-dasharray:none;stroke-opacity:1"
           id="path86"
           inkscape:connector-curvature="0" /><path
           d="m 236.83,319.77 180.77,0"
           style="fill:none;stroke:#bebebe;stroke-width:0.06;stroke-linecap:round;stroke-linejoin:round;stroke-miterlimit:10;stroke-dasharray:none;stroke-opacity:1"
           id="path88"
           inkscape:connector-curvature="0" /><path
           d="m 236.83,194.11 5.65,0.91 5.64,0.3 5.65,9.77 5.65,-7.95 5.65,1.58 5.65,-2.86 5.65,24.9 5.65,5.29 5.65,-8.68 5.65,2.54 5.65,6.32 5.65,-25.35 5.65,12.18 5.64,1.13 5.65,-5.8 5.65,-2.81 5.65,2.87 5.65,13.54 5.65,-7.66 5.65,24.25 5.65,21.79 5.65,-12.75 5.65,-15.25 5.65,-10.11 5.65,5.21 5.64,-3.95 5.65,-19.65 5.65,2.66 5.65,-3.18 5.65,0 5.65,7.47 5.65,-2.6 0,-14.18 -5.65,0 -5.65,0 -5.65,0 -5.65,0 -5.65,0 -5.65,0 -5.64,0 -5.65,0 -5.65,0 -5.65,0 -5.65,0 -5.65,0 -5.65,0 -5.65,0 -5.65,0 -5.65,0 -5.65,0 -5.65,0 -5.64,0 -5.65,0 -5.65,0 -5.65,0 -5.65,0 -5.65,0 -5.65,0 -5.65,0 -5.65,0 -5.65,0 -5.65,0 -5.65,0 -5.64,0 -5.65,0 0,0.07 z"
           style="fill:#d4c3aa;fill-opacity:1;fill-rule:nonzero;stroke:none"
           id="path90"
           inkscape:connector-curvature="0" /></g></g><g
       id="g92"
       transform="translate(0,-3.2)" /><g
       id="g94"
       transform="translate(0,-3.2)"><g
         id="g96"
         clip-path="url(#clipPath98)"><path
           d="m 52.45,43.68 180.78,0"
           style="fill:none;stroke:#bebebe;stroke-width:0.06;stroke-linecap:round;stroke-linejoin:round;stroke-miterlimit:10;stroke-dasharray:none;stroke-opacity:1"
           id="path102"
           inkscape:connector-curvature="0" /><path
           d="m 52.45,106.55 180.78,0"
           style="fill:none;stroke:#bebebe;stroke-width:0.06;stroke-linecap:round;stroke-linejoin:round;stroke-miterlimit:10;stroke-dasharray:none;stroke-opacity:1"
           id="path104"
           inkscape:connector-curvature="0" /><path
           d="m 52.45,169.42 180.78,0"
           style="fill:none;stroke:#bebebe;stroke-width:0.06;stroke-linecap:round;stroke-linejoin:round;stroke-miterlimit:10;stroke-dasharray:none;stroke-opacity:1"
           id="path106"
           inkscape:connector-curvature="0" /><path
           d="m 52.45,64.24 5.65,1.87 5.65,10.5 5.65,0.31 5.65,-7.52 5.65,7.13 5.65,11.58 5.65,-6.32 5.65,-0.83 5.64,2.92 5.65,16.41 5.65,-3.25 5.65,6.45 5.65,-4.13 5.65,11.62 5.65,18 5.65,-39.61 5.65,-7.4 5.65,1.5 5.65,-1.64 5.65,-5.76 5.64,-8.39 5.65,2.38 5.65,-10 5.65,1.77 5.65,-6.38 5.65,2.11 5.65,-1.28 5.65,-5.58 5.65,12.2 5.65,-11.62 5.65,6.84 5.65,-7.36 0,-7.08 -5.65,0 -5.65,0 -5.65,0 -5.65,0 -5.65,0 -5.65,0 -5.65,0 -5.65,0 -5.65,0 -5.65,0 -5.65,0 -5.64,0 -5.65,0 -5.65,0 -5.65,0 -5.65,0 -5.65,0 -5.65,0 -5.65,0 -5.65,0 -5.65,0 -5.65,0 -5.65,0 -5.64,0 -5.65,0 -5.65,0 -5.65,0 -5.65,0 -5.65,0 -5.65,0 -5.65,0 -5.65,0 0,20.56 z"
           style="fill:#d4c3aa;fill-opacity:1;fill-rule:nonzero;stroke:none"
           id="path108"
           inkscape:connector-curvature="0" /></g></g><g
       id="g110"
       transform="translate(0,-3.2)" /><g
       id="g112"
       transform="translate(0,-3.2)"><g
         id="g114"
         clip-path="url(#clipPath116)"><path
           d="m 236.83,43.68 180.77,0"
           style="fill:none;stroke:#bebebe;stroke-width:0.06;stroke-linecap:round;stroke-linejoin:round;stroke-miterlimit:10;stroke-dasharray:none;stroke-opacity:1"
           id="path120"
           inkscape:connector-curvature="0" /><path
           d="m 236.83,106.55 180.77,0"
           style="fill:none;stroke:#bebebe;stroke-width:0.06;stroke-linecap:round;stroke-linejoin:round;stroke-miterlimit:10;stroke-dasharray:none;stroke-opacity:1"
           id="path122"
           inkscape:connector-curvature="0" /><path
           d="m 236.83,169.42 180.77,0"
           style="fill:none;stroke:#bebebe;stroke-width:0.06;stroke-linecap:round;stroke-linejoin:round;stroke-miterlimit:10;stroke-dasharray:none;stroke-opacity:1"
           id="path124"
           inkscape:connector-curvature="0" /><path
           d="m 236.83,50.73 5.65,2.43 5.64,-8.53 5.65,-0.37 5.65,2.38 5.65,9.72 5.65,-10.15 5.65,8.77 5.65,-7.21 5.65,-1.88 5.65,4.83 5.65,-5.86 5.65,1.2 5.65,0.16 5.64,-1.55 5.65,1.5 5.65,8.86 5.65,-10.62 5.65,-0.4 5.65,0.03 5.65,1.26 5.65,0.68 5.65,4.01 5.65,14.15 5.65,-6.38 5.65,5.12 5.64,20.99 5.65,46.19 5.65,-68.01 5.65,-15.4 5.65,58.33 5.65,-60.38 5.65,94.33 0,-95.25 -5.65,0 -5.65,0 -5.65,0 -5.65,0 -5.65,0 -5.65,0 -5.64,0 -5.65,0 -5.65,0 -5.65,0 -5.65,0 -5.65,0 -5.65,0 -5.65,0 -5.65,0 -5.65,0 -5.65,0 -5.65,0 -5.64,0 -5.65,0 -5.65,0 -5.65,0 -5.65,0 -5.65,0 -5.65,0 -5.65,0 -5.65,0 -5.65,0 -5.65,0 -5.65,0 -5.64,0 -5.65,0 0,7.05 z"
           style="fill:#d4c3aa;fill-opacity:1;fill-rule:nonzero;stroke:none"
           id="path126"
           inkscape:connector-curvature="0" /></g></g><g
       id="g128"
       transform="translate(0,-3.2)" /><g
       id="g130"
       transform="translate(-1.6,-35.2)"><text
         transform="matrix(1,0,0,-1,124.83,482.55)"
         style="font-variant:normal;font-weight:normal;font-size:7px;line-height:125%;font-family:'Open Sans';-inkscape-font-specification:OpenSans;writing-mode:lr-tb;fill:#000000;fill-opacity:1;fill-rule:nonzero;stroke:none"
         id="text132"
         sodipodi:linespacing="125%"><tspan
           x="0 5.1659999 9.3940001 13.692 17.528 19.348 23.646 27.874001 32.172001"
           y="0"
           sodipodi:role="line"
           id="tspan134"
           style="font-style:normal;font-variant:normal;font-weight:bold;font-stretch:normal;font-size:7px;line-height:125%;font-family:'Open Sans';-inkscape-font-specification:'Open Sans, Bold';text-align:start;writing-mode:lr-tb;text-anchor:start">Hong Kong</tspan></text>
</g><g
       id="g136"
       transform="translate(0,-3.2)" /><g
       id="g138"
       transform="translate(0,-3.2)"><text
         transform="scale(1,-1)"
         style="font-variant:normal;font-weight:normal;font-size:7px;font-family:'Open Sans';-inkscape-font-specification:OpenSans;writing-mode:lr-tb;fill:#000000;fill-opacity:1;fill-rule:nonzero;stroke:none"
         id="text140"
         x="317.50998"
         y="-450.5499"><tspan
           x="317.50998 319.46298 323.76099 328.052 329.823"
           y="-450.5499"
           sodipodi:role="line"
           id="tspan142"
           style="color:#000000;font-style:normal;font-variant:normal;font-weight:bold;font-stretch:normal;font-size:7px;line-height:125%;font-family:'Open Sans';-inkscape-font-specification:'Open Sans, Bold';text-indent:0;text-align:start;text-decoration:none;text-decoration-line:none;text-decoration-style:solid;text-decoration-color:#000000;letter-spacing:normal;word-spacing:normal;text-transform:none;direction:ltr;block-progression:tb;writing-mode:lr-tb;baseline-shift:baseline;text-anchor:start;white-space:normal;clip-rule:nonzero;display:inline;overflow:visible;visibility:visible;opacity:1;isolation:auto;mix-blend-mode:normal;color-interpolation:sRGB;color-interpolation-filters:linearRGB;solid-color:#000000;solid-opacity:1;fill:#000000;fill-opacity:1;fill-rule:nonzero;stroke:none;stroke-width:1;stroke-linecap:butt;stroke-linejoin:miter;stroke-miterlimit:4;stroke-dasharray:none;stroke-dashoffset:0;stroke-opacity:1;color-rendering:auto;image-rendering:auto;shape-rendering:auto;text-rendering:auto;enable-background:accumulate">India</tspan></text>
</g><g
       id="g144"
       transform="translate(0,-3.2)" /><g
       id="g146"
       transform="translate(0,-3.2)"><text
         transform="scale(1,-1)"
         style="font-variant:normal;font-weight:normal;font-size:7px;font-family:'Open Sans';-inkscape-font-specification:OpenSans;writing-mode:lr-tb;fill:#000000;fill-opacity:1;fill-rule:nonzero;stroke:none"
         id="text148"
         x="134.42999"
         y="-300.18988"><tspan
           x="134.42999 136.383 138.85399 142.74599 144.517"
           y="-300.18988"
           sodipodi:role="line"
           id="tspan150"
           style="color:#000000;font-style:normal;font-variant:normal;font-weight:bold;font-stretch:normal;font-size:7px;line-height:125%;font-family:'Open Sans';-inkscape-font-specification:'Open Sans, Bold';text-indent:0;text-align:start;text-decoration:none;text-decoration-line:none;text-decoration-style:solid;text-decoration-color:#000000;letter-spacing:normal;word-spacing:normal;text-transform:none;direction:ltr;block-progression:tb;writing-mode:lr-tb;baseline-shift:baseline;text-anchor:start;white-space:normal;clip-rule:nonzero;display:inline;overflow:visible;visibility:visible;opacity:1;isolation:auto;mix-blend-mode:normal;color-interpolation:sRGB;color-interpolation-filters:linearRGB;solid-color:#000000;solid-opacity:1;fill:#000000;fill-opacity:1;fill-rule:nonzero;stroke:none;stroke-width:1;stroke-linecap:butt;stroke-linejoin:miter;stroke-miterlimit:4;stroke-dasharray:none;stroke-dashoffset:0;stroke-opacity:1;color-rendering:auto;image-rendering:auto;shape-rendering:auto;text-rendering:auto;enable-background:accumulate">Italy</tspan></text>
</g><g
       id="g152"
       transform="translate(0,-3.2)" /><g
       id="g154"
       transform="translate(0,-3.2)"><text
         transform="scale(1,-1)"
         style="font-variant:normal;font-weight:normal;font-size:7px;font-family:'Open Sans';-inkscape-font-specification:OpenSans;writing-mode:lr-tb;fill:#000000;fill-opacity:1;fill-rule:nonzero;stroke:none"
         id="text156"
         x="314.85001"
         y="-300.18988"><tspan
           x="314.85001 318.371 322.66901 325.52499 329.06 332.84698"
           y="-300.18988"
           sodipodi:role="line"
           id="tspan158"
           style="color:#000000;font-style:normal;font-variant:normal;font-weight:bold;font-stretch:normal;font-size:7px;line-height:125%;font-family:'Open Sans';-inkscape-font-specification:'Open Sans, Bold';text-indent:0;text-align:start;text-decoration:none;text-decoration-line:none;text-decoration-style:solid;text-decoration-color:#000000;letter-spacing:normal;word-spacing:normal;text-transform:none;direction:ltr;block-progression:tb;writing-mode:lr-tb;baseline-shift:baseline;text-anchor:start;white-space:normal;clip-rule:nonzero;display:inline;overflow:visible;visibility:visible;opacity:1;isolation:auto;mix-blend-mode:normal;color-interpolation:sRGB;color-interpolation-filters:linearRGB;solid-color:#000000;solid-opacity:1;fill:#000000;fill-opacity:1;fill-rule:nonzero;stroke:none;stroke-width:1;stroke-linecap:butt;stroke-linejoin:miter;stroke-miterlimit:4;stroke-dasharray:none;stroke-dashoffset:0;stroke-opacity:1;color-rendering:auto;image-rendering:auto;shape-rendering:auto;text-rendering:auto;enable-background:accumulate">Turkey</tspan></text>
</g><g
       id="g160"
       transform="translate(0,-3.2)" /><g
       id="g162"
       transform="translate(0,-3.2)"><text
         transform="scale(1,-1)"
         style="font-variant:normal;font-weight:normal;font-size:7px;font-family:'Open Sans';-inkscape-font-specification:OpenSans;writing-mode:lr-tb;fill:#000000;fill-opacity:1;fill-rule:nonzero;stroke:none"
         id="text164"
         x="106.57"
         y="-149.83989"><tspan
           x="106.57 111.666 115.964 117.735 120.206 124.133 128.424 130.24399 134.67499 137.39099 141.28299 145.57399 147.394 151.286 157.79599 159.567 162.28299 166.17499 168.646 172.573"
           y="-149.83989"
           sodipodi:role="line"
           id="tspan166"
           style="color:#000000;font-style:normal;font-variant:normal;font-weight:bold;font-stretch:normal;font-size:7px;line-height:125%;font-family:'Open Sans';-inkscape-font-specification:'Open Sans, Bold';text-indent:0;text-align:start;text-decoration:none;text-decoration-line:none;text-decoration-style:solid;text-decoration-color:#000000;letter-spacing:normal;word-spacing:normal;text-transform:none;direction:ltr;block-progression:tb;writing-mode:lr-tb;baseline-shift:baseline;text-anchor:start;white-space:normal;clip-rule:nonzero;display:inline;overflow:visible;visibility:visible;opacity:1;isolation:auto;mix-blend-mode:normal;color-interpolation:sRGB;color-interpolation-filters:linearRGB;solid-color:#000000;solid-opacity:1;fill:#000000;fill-opacity:1;fill-rule:nonzero;stroke:none;stroke-width:1;stroke-linecap:butt;stroke-linejoin:miter;stroke-miterlimit:4;stroke-dasharray:none;stroke-dashoffset:0;stroke-opacity:1;color-rendering:auto;image-rendering:auto;shape-rendering:auto;text-rendering:auto;enable-background:accumulate">United Arab Emirates</tspan></text>
</g><g
       id="g168"
       transform="translate(0,-3.2)" /><g
       id="g170"
       transform="translate(0,-3.2)"><text
         transform="scale(1,-1)"
         style="font-variant:normal;font-weight:normal;font-size:7px;font-family:'Open Sans';-inkscape-font-specification:OpenSans;writing-mode:lr-tb;fill:#000000;fill-opacity:1;fill-rule:nonzero;stroke:none"
         id="text172"
         x="299.16"
         y="-149.83989"><tspan
           x="299.16 304.25598 308.55399 310.32498 312.79599 316.72299 321.01401 322.83398 327.13199 328.90298 333.20099 337.03699 341.328 345.556"
           y="-149.83989"
           sodipodi:role="line"
           id="tspan174"
           style="color:#000000;font-style:normal;font-variant:normal;font-weight:bold;font-stretch:normal;font-size:7px;line-height:125%;font-family:'Open Sans';-inkscape-font-specification:'Open Sans, Bold';text-indent:0;text-align:start;text-decoration:none;text-decoration-line:none;text-decoration-style:solid;text-decoration-color:#000000;letter-spacing:normal;word-spacing:normal;text-transform:none;direction:ltr;block-progression:tb;writing-mode:lr-tb;baseline-shift:baseline;text-anchor:start;white-space:normal;clip-rule:nonzero;display:inline;overflow:visible;visibility:visible;opacity:1;isolation:auto;mix-blend-mode:normal;color-interpolation:sRGB;color-interpolation-filters:linearRGB;solid-color:#000000;solid-opacity:1;fill:#000000;fill-opacity:1;fill-rule:nonzero;stroke:none;stroke-width:1;stroke-linecap:butt;stroke-linejoin:miter;stroke-miterlimit:4;stroke-dasharray:none;stroke-dashoffset:0;stroke-opacity:1;color-rendering:auto;image-rendering:auto;shape-rendering:auto;text-rendering:auto;enable-background:accumulate">United Kingdom</tspan></text>
</g><g
       id="g176"
       transform="translate(0,-3.2)" /><g
       id="g178"
       transform="translate(0,-3.2)" /><g
       id="g180"
       transform="translate(0,-3.2)"><text
         transform="matrix(1,0,0,-1,35.6,341.89)"
         style="font-variant:normal;font-weight:normal;font-size:7px;font-family:'Open Sans';-inkscape-font-specification:OpenSans;writing-mode:lr-tb;fill:#000000;fill-opacity:1;fill-rule:nonzero;stroke:none"
         id="text182"><tspan
           x="0 4.0040002"
           y="0"
           sodipodi:role="line"
           id="tspan184">0%</tspan></text>
<text
         transform="matrix(1,0,0,-1,31.6,404.76)"
         style="font-variant:normal;font-weight:normal;font-size:7px;font-family:'Open Sans';-inkscape-font-specification:OpenSans;writing-mode:lr-tb;fill:#000000;fill-opacity:1;fill-rule:nonzero;stroke:none"
         id="text186"><tspan
           x="0 4.0040002 8.0080004"
           y="0"
           sodipodi:role="line"
           id="tspan188">20%</tspan></text>
<text
         transform="matrix(1,0,0,-1,31.6,467.63)"
         style="font-variant:normal;font-weight:normal;font-size:7px;font-family:'Open Sans';-inkscape-font-specification:OpenSans;writing-mode:lr-tb;fill:#000000;fill-opacity:1;fill-rule:nonzero;stroke:none"
         id="text190"><tspan
           x="0 4.0040002 8.0080004"
           y="0"
           sodipodi:role="line"
           id="tspan192">40%</tspan></text>
</g><g
       id="g194"
       transform="translate(0,-3.2)" /><g
       id="g196"
       transform="translate(0,-3.2)" /><g
       id="g198"
       transform="translate(0,-3.2)" /><g
       id="g200"
       transform="translate(0,-3.2)" /><g
       id="g202"
       transform="translate(0,-3.2)" /><g
       id="g204"
       transform="translate(0,-3.2)" /><g
       id="g206"
       transform="translate(0,-3.2)" /><g
       id="g208"
       transform="translate(0,-3.2)" /><g
       id="g210"
       transform="translate(0,-3.2)" /><g
       id="g212"
       transform="translate(0,-3.2)"><text
         transform="matrix(1,0,0,-1,35.6,191.54)"
         style="font-variant:normal;font-weight:normal;font-size:7px;font-family:'Open Sans';-inkscape-font-specification:OpenSans;writing-mode:lr-tb;fill:#000000;fill-opacity:1;fill-rule:nonzero;stroke:none"
         id="text214"><tspan
           x="0 4.0040002"
           y="0"
           sodipodi:role="line"
           id="tspan216">0%</tspan></text>
<text
         transform="matrix(1,0,0,-1,31.6,254.41)"
         style="font-variant:normal;font-weight:normal;font-size:7px;font-family:'Open Sans';-inkscape-font-specification:OpenSans;writing-mode:lr-tb;fill:#000000;fill-opacity:1;fill-rule:nonzero;stroke:none"
         id="text218"><tspan
           x="0 4.0040002 8.0080004"
           y="0"
           sodipodi:role="line"
           id="tspan220">20%</tspan></text>
<text
         transform="matrix(1,0,0,-1,31.6,317.27)"
         style="font-variant:normal;font-weight:normal;font-size:7px;font-family:'Open Sans';-inkscape-font-specification:OpenSans;writing-mode:lr-tb;fill:#000000;fill-opacity:1;fill-rule:nonzero;stroke:none"
         id="text222"><tspan
           x="0 4.0040002 8.0080004"
           y="0"
           sodipodi:role="line"
           id="tspan224">40%</tspan></text>
</g><g
       id="g226"
       transform="translate(0,-3.2)" /><g
       id="g228"
       transform="translate(0,-3.2)" /><g
       id="g230"
       transform="translate(0,-3.2)" /><g
       id="g232"
       transform="translate(0,-3.2)" /><g
       id="g234"
       transform="translate(0,-3.2)" /><g
       id="g236"
       transform="translate(0,-3.2)" /><g
       id="g238"
       transform="translate(0,-3.2)" /><g
       id="g240"
       transform="translate(0,-3.2)" /><g
       id="g242"
       transform="translate(0,-3.2)" /><g
       id="g244"
       transform="translate(0,-3.2)"><text
         transform="matrix(1,0,0,-1,35.6,41.18)"
         style="font-variant:normal;font-weight:normal;font-size:7px;font-family:'Open Sans';-inkscape-font-specification:OpenSans;writing-mode:lr-tb;fill:#000000;fill-opacity:1;fill-rule:nonzero;stroke:none"
         id="text246"><tspan
           x="0 4.0040002"
           y="0"
           sodipodi:role="line"
           id="tspan248">0%</tspan></text>
<text
         transform="matrix(1,0,0,-1,31.6,104.05)"
         style="font-variant:normal;font-weight:normal;font-size:7px;font-family:'Open Sans';-inkscape-font-specification:OpenSans;writing-mode:lr-tb;fill:#000000;fill-opacity:1;fill-rule:nonzero;stroke:none"
         id="text250"><tspan
           x="0 4.0040002 8.0080004"
           y="0"
           sodipodi:role="line"
           id="tspan252">20%</tspan></text>
<text
         transform="matrix(1,0,0,-1,31.6,166.92)"
         style="font-variant:normal;font-weight:normal;font-size:7px;font-family:'Open Sans';-inkscape-font-specification:OpenSans;writing-mode:lr-tb;fill:#000000;fill-opacity:1;fill-rule:nonzero;stroke:none"
         id="text254"><tspan
           x="0 4.0040002 8.0080004"
           y="0"
           sodipodi:role="line"
           id="tspan256">40%</tspan></text>
</g><g
       id="g258"
       transform="translate(0,-3.2)" /><g
       id="g260"
       transform="translate(0,-3.2)" /><g
       id="g262"
       transform="translate(0,-3.2)" /><g
       id="g264"
       transform="translate(0,-3.2)" /><g
       id="g266"
       transform="translate(0,-3.2)" /><g
       id="g268"
       transform="translate(0,-3.2)" /><g
       id="g270"
       transform="translate(0,-3.2)" /><g
       id="g272"
       transform="translate(0,-3.2)" /><g
       id="g274"
       transform="translate(0,-3.2)" /><g
       id="g276"
       transform="translate(0,-3.2)" /><g
       id="g278"
       transform="translate(0,-3.2)" /><g
       id="g280"
       transform="translate(0,-3.2)" /><g
       id="g282"
       transform="translate(0,-3.2)" /><g
       id="g284"
       transform="translate(0,-3.2)" /><g
       id="g286"
       transform="translate(0,-3.2)" /><g
       id="g288"
       transform="translate(0,-3.2)" /><g
       id="g290"
       transform="translate(0,-3.2)" /><g
       id="g292"
       transform="translate(0,-3.2)"><path
         d="m 97.65,39.43 0,4.25"
         style="fill:none;stroke:#000000;stroke-width:1.05999994;stroke-linecap:butt;stroke-linejoin:round;stroke-miterlimit:10;stroke-dasharray:none;stroke-opacity:1"
         id="path294"
         inkscape:connector-curvature="0" /><path
         d="m 154.14,39.43 0,4.25"
         style="fill:none;stroke:#000000;stroke-width:1.05999994;stroke-linecap:butt;stroke-linejoin:round;stroke-miterlimit:10;stroke-dasharray:none;stroke-opacity:1"
         id="path296"
         inkscape:connector-curvature="0" /><path
         d="m 210.63,39.43 0,4.25"
         style="fill:none;stroke:#000000;stroke-width:1.05999994;stroke-linecap:butt;stroke-linejoin:round;stroke-miterlimit:10;stroke-dasharray:none;stroke-opacity:1"
         id="path298"
         inkscape:connector-curvature="0" /></g><g
       id="g300"
       transform="translate(0,-3.2)" /><g
       id="g302"
       transform="translate(0,-3.2)"><text
         transform="matrix(1,0,0,-1,89.64,31.6)"
         style="font-variant:normal;font-weight:normal;font-size:7px;font-family:'Open Sans';-inkscape-font-specification:OpenSans;writing-mode:lr-tb;fill:#000000;fill-opacity:1;fill-rule:nonzero;stroke:none"
         id="text304"><tspan
           x="0 4.0040002 8.0080004 12.012"
           y="0"
           sodipodi:role="line"
           id="tspan306">1990</tspan></text>
<text
         transform="matrix(1,0,0,-1,146.13,31.6)"
         style="font-variant:normal;font-weight:normal;font-size:7px;font-family:'Open Sans';-inkscape-font-specification:OpenSans;writing-mode:lr-tb;fill:#000000;fill-opacity:1;fill-rule:nonzero;stroke:none"
         id="text308"><tspan
           x="0 4.0040002 8.0080004 12.012"
           y="0"
           sodipodi:role="line"
           id="tspan310">2000</tspan></text>
<text
         transform="matrix(1,0,0,-1,202.62,31.6)"
         style="font-variant:normal;font-weight:normal;font-size:7px;font-family:'Open Sans';-inkscape-font-specification:OpenSans;writing-mode:lr-tb;fill:#000000;fill-opacity:1;fill-rule:nonzero;stroke:none"
         id="text312"><tspan
           x="0 4.0040002 8.0080004 12.012"
           y="0"
           sodipodi:role="line"
           id="tspan314">2010</tspan></text>
</g><g
       id="g316"
       transform="translate(0,-3.2)" /><g
       id="g318"
       transform="translate(0,-3.2)" /><g
       id="g320"
       transform="translate(0,-3.2)" /><g
       id="g322"
       transform="translate(0,-3.2)" /><g
       id="g324"
       transform="translate(0,-3.2)" /><g
       id="g326"
       transform="translate(0,-3.2)"><path
         d="m 282.02,39.43 0,4.25"
         style="fill:none;stroke:#000000;stroke-width:1.05999994;stroke-linecap:butt;stroke-linejoin:round;stroke-miterlimit:10;stroke-dasharray:none;stroke-opacity:1"
         id="path328"
         inkscape:connector-curvature="0" /><path
         d="m 338.51,39.43 0,4.25"
         style="fill:none;stroke:#000000;stroke-width:1.05999994;stroke-linecap:butt;stroke-linejoin:round;stroke-miterlimit:10;stroke-dasharray:none;stroke-opacity:1"
         id="path330"
         inkscape:connector-curvature="0" /><path
         d="m 395,39.43 0,4.25"
         style="fill:none;stroke:#000000;stroke-width:1.05999994;stroke-linecap:butt;stroke-linejoin:round;stroke-miterlimit:10;stroke-dasharray:none;stroke-opacity:1"
         id="path332"
         inkscape:connector-curvature="0" /></g><g
       id="g334"
       transform="translate(0,-3.2)" /><g
       id="g336"
       transform="translate(0,-3.2)"><text
         transform="matrix(1,0,0,-1,274.01,31.6)"
         style="font-variant:normal;font-weight:normal;font-size:7px;font-family:'Open Sans';-inkscape-font-specification:OpenSans;writing-mode:lr-tb;fill:#000000;fill-opacity:1;fill-rule:nonzero;stroke:none"
         id="text338"><tspan
           x="0 4.0040002 8.0080004 12.012"
           y="0"
           sodipodi:role="line"
           id="tspan340">1990</tspan></text>
<text
         transform="matrix(1,0,0,-1,330.5,31.6)"
         style="font-variant:normal;font-weight:normal;font-size:7px;font-family:'Open Sans';-inkscape-font-specification:OpenSans;writing-mode:lr-tb;fill:#000000;fill-opacity:1;fill-rule:nonzero;stroke:none"
         id="text342"><tspan
           x="0 4.0040002 8.0080004 12.012"
           y="0"
           sodipodi:role="line"
           id="tspan344">2000</tspan></text>
<text
         transform="matrix(1,0,0,-1,387,31.6)"
         style="font-variant:normal;font-weight:normal;font-size:7px;font-family:'Open Sans';-inkscape-font-specification:OpenSans;writing-mode:lr-tb;fill:#000000;fill-opacity:1;fill-rule:nonzero;stroke:none"
         id="text346"><tspan
           x="0 4.0040002 8.0080004 12.012"
           y="0"
           sodipodi:role="line"
           id="tspan348">2010</tspan></text>
</g><g
       id="g350"
       transform="translate(0,-3.2)" /><g
       id="g352"
       transform="translate(0,-3.2)" /><g
       id="g354"
       transform="translate(0,-3.2)" /><g
       id="g356"
       transform="translate(0,-3.2)" /><g
       id="g358"
       transform="translate(0,-3.2)" /><g
       id="g360"
       transform="translate(0,-3.2)" /><g
       id="g362"
       transform="translate(0,-30.816604)"><text
         transform="matrix(0,1,1,0,0,0)"
         style="font-variant:normal;font-weight:600;font-size:14px;font-family:'Open Sans';-inkscape-font-specification:OpenSans-Semibold;writing-mode:lr-tb;fill:#7e8279;fill-opacity:1;fill-rule:nonzero;stroke:none"
         id="text364"
         x="152.64304"
         y="24.4"><tspan
           sodipodi:role="line"
           id="tspan366"
           x="152.64304"
           y="24.4">% des exportations annuelles d’or de la Suisse</tspan></text>
</g><g
       id="g368"
       transform="translate(0,-3.2)" /><g
       id="g376"
       transform="translate(0,-3.2)" /><g
       id="g378"
       transform="translate(0,-3.2)" /><text
       xml:space="preserve"
       style="font-style:normal;font-variant:normal;font-weight:normal;font-stretch:normal;font-size:9px;line-height:125%;font-family:'Open Sans';-inkscape-font-specification:'Open Sans';text-align:start;letter-spacing:0px;word-spacing:0px;writing-mode:lr-tb;text-anchor:start;fill:#000000;fill-opacity:1;stroke:none;stroke-width:1px;stroke-linecap:butt;stroke-linejoin:miter;stroke-opacity:1"
       x="16.957563"
       y="-523.45355"
       id="text4733"
       sodipodi:linespacing="125%"
       transform="scale(1,-1)"><tspan
         sodipodi:role="line"
         id="tspan4735"
         x="16.957563"
         y="-523.45355" /></text>
<text
       xml:space="preserve"
       style="font-style:normal;font-variant:normal;font-weight:normal;font-stretch:normal;font-size:14px;line-height:125%;font-family:'Open Sans';-inkscape-font-specification:'Open Sans';text-align:start;letter-spacing:0px;word-spacing:0px;writing-mode:lr-tb;text-anchor:start;fill:#000000;fill-opacity:1;stroke:none;stroke-width:1px;stroke-linecap:butt;stroke-linejoin:miter;stroke-opacity:1"
       x="11.033386"
       y="-517.9903"
       id="text3915"
       sodipodi:linespacing="125%"
       transform="scale(1,-1)"><tspan
         sodipodi:role="line"
         x="11.033386"
         y="-517.9903"
         id="tspan3919"
         style="font-style:normal;font-variant:normal;font-weight:600;font-stretch:normal;font-size:16px;font-family:'Open Sans';-inkscape-font-specification:'Open Sans Semi-Bold'">Les 6 principaux pays importateurs d'or de la Suisse</tspan></text>
<text
       xml:space="preserve"
       style="font-style:normal;font-variant:normal;font-weight:normal;font-stretch:normal;font-size:9px;line-height:125%;font-family:'Open Sans';-inkscape-font-specification:'Open Sans';text-align:start;letter-spacing:0px;word-spacing:0px;writing-mode:lr-tb;text-anchor:start;fill:#000000;fill-opacity:1;stroke:none;stroke-width:1px;stroke-linecap:butt;stroke-linejoin:miter;stroke-opacity:1"
       x="12.11832"
       y="-505.09848"
       id="text4331"
       sodipodi:linespacing="125%"
       transform="scale(1,-1)"><tspan
         sodipodi:role="line"
         x="12.11832"
         y="-505.09848"
         id="tspan4343">De tout l'or exporté par la Suisse entre 1982 et 2014, le 63% a été importé par ces 6 pays.  </tspan></text>
<text
       xml:space="preserve"
       style="font-style:normal;font-variant:normal;font-weight:normal;font-stretch:normal;font-size:9px;line-height:125%;font-family:'Open Sans';-inkscape-font-specification:'Open Sans';text-align:start;letter-spacing:0px;word-spacing:0px;writing-mode:lr-tb;text-anchor:start;display:inline;fill:#000000;fill-opacity:1;stroke:none;stroke-width:1px;stroke-linecap:butt;stroke-linejoin:miter;stroke-opacity:1"
       x="291.18079"
       y="-8.413785"
       id="text3627"
       sodipodi:linespacing="125%"
       transform="scale(1,-1)"><tspan
         sodipodi:role="line"
         id="tspan3629"
         x="291.18079"
         y="-8.413785"
         style="font-size:6px;fill:#666666">source: Administration fédérale des douanes</tspan></text>
</g></svg>